HIERARCHY
ROOT hip
{
  OFFSET 0 0 0
  CHANNELS 6 Xposition Yposition Zposition Zrotation Yrotation Xrotation
  JOINT abdomen
  {
    OFFSET 0 20.6881 -0.73152
    CHANNELS 3 Zrotation Xrotation Yrotation
    JOINT chest
    {
      OFFSET 0 11.7043 -0.48768
      CHANNELS 3 Zrotation Xrotation Yrotation
      JOINT neck
      {
        OFFSET 0 22.1894 -2.19456
        CHANNELS 3 Zrotation Xrotation Yrotation
        JOINT head
        {
          OFFSET -0.24384 7.07133 1.2192
          CHANNELS 3 Zrotation Xrotation Yrotation
          JOINT leftEye
          {
            OFFSET 4.14528 8.04674 8.04672
            CHANNELS 3 Zrotation Xrotation Yrotation
            End Site
            {
              OFFSET 1 0 0
            }
          }
          JOINT rightEye
          {
            OFFSET -3.6576 8.04674 8.04672
            CHANNELS 3 Zrotation Xrotation Yrotation
            End Site
            {
              OFFSET 1 0 0
            }
          }
        }
      }
      JOINT rCollar
      {
        OFFSET -2.68224 19.2634 -4.8768
        CHANNELS 3 Zrotation Xrotation Yrotation
        JOINT rShldr
        {
          OFFSET -8.77824 -1.95073 1.46304
          CHANNELS 3 Zrotation Xrotation Yrotation
          JOINT rForeArm
          {
            OFFSET -28.1742 -1.7115 0.48768
            CHANNELS 3 Zrotation Xrotation Yrotation
            JOINT rHand
            {
              OFFSET -22.5879 0.773209 7.07136
              CHANNELS 3 Zrotation Xrotation Yrotation
              JOINT rThumb1
              {
                OFFSET -1.2192 -0.487915 3.41376
                CHANNELS 3 Zrotation Xrotation Yrotation
                JOINT rThumb2
                {
                  OFFSET -3.37035 -0.52449 3.41376
                  CHANNELS 3 Zrotation Xrotation Yrotation
                  End Site
                  {
                    OFFSET -1.78271 -1.18214 1.43049
                  }
                }
              }
              JOINT rIndex1
              {
                OFFSET -7.75947 0.938293 5.60832
                CHANNELS 3 Zrotation Xrotation Yrotation
                JOINT rIndex2
                {
                  OFFSET -2.54057 -0.884171 1.56538
                  CHANNELS 3 Zrotation Xrotation Yrotation
                  End Site
                  {
                    OFFSET -1.62519 -0.234802 1.16502
                  }
                }
              }
              JOINT rMid1
              {
                OFFSET -8.24714 1.18213 3.41376
                CHANNELS 3 Zrotation Xrotation Yrotation
                JOINT rMid2
                {
                  OFFSET -3.10165 -0.590103 1.0647
                  CHANNELS 3 Zrotation Xrotation Yrotation
                  End Site
                  {
                    OFFSET -2.48547 -0.328903 0.83742
                  }
                }
              }
              JOINT rRing1
              {
                OFFSET -8.82822 0.546677 1.51678
                CHANNELS 3 Zrotation Xrotation Yrotation
                JOINT rRing2
                {
                  OFFSET -2.60934 -0.819778 -0.0198488
                  CHANNELS 3 Zrotation Xrotation Yrotation
                  End Site
                  {
                    OFFSET -2.33842 -0.294052 0.168128
                  }
                }
              }
              JOINT rPinky1
              {
                OFFSET -8.27202 -0.0477905 -0.4584
                CHANNELS 3 Zrotation Xrotation Yrotation
                JOINT rPinky2
                {
                  OFFSET -1.82734 -0.647385 -0.700984
                  CHANNELS 3 Zrotation Xrotation Yrotation
                  End Site
                  {
                    OFFSET -1.69225 -0.51767 -0.607171
                  }
                }
              }
            }
          }
        }
      }
      JOINT lCollar
      {
        OFFSET 2.68224 19.2634 -4.8768
        CHANNELS 3 Zrotation Xrotation Yrotation
        JOINT lShldr
        {
          OFFSET 8.77824 -1.95073 1.46304
          CHANNELS 3 Zrotation Xrotation Yrotation
          JOINT lForeArm
          {
            OFFSET 28.1742 -1.7115 0.48768
            CHANNELS 3 Zrotation Xrotation Yrotation
            JOINT lHand
            {
              OFFSET 22.5879 0.773209 7.07136
              CHANNELS 3 Zrotation Xrotation Yrotation
              JOINT lThumb1
              {
                OFFSET 1.2192 -0.487915 3.41376
                CHANNELS 3 Zrotation Xrotation Yrotation
                JOINT lThumb2
                {
                  OFFSET 3.37035 -0.52449 3.41376
                  CHANNELS 3 Zrotation Xrotation Yrotation
                  End Site
                  {
                    OFFSET 1.78271 -1.18214 1.43049
                  }
                }
              }
              JOINT lIndex1
              {
                OFFSET 7.75947 0.938293 5.60832
                CHANNELS 3 Zrotation Xrotation Yrotation
                JOINT lIndex2
                {
                  OFFSET 2.54057 -0.884171 1.56538
                  CHANNELS 3 Zrotation Xrotation Yrotation
                  End Site
                  {
                    OFFSET 1.62519 -0.234802 1.16502
                  }
                }
              }
              JOINT lMid1
              {
                OFFSET 8.24714 1.18213 3.41376
                CHANNELS 3 Zrotation Xrotation Yrotation
                JOINT lMid2
                {
                  OFFSET 3.10165 -0.590103 1.0647
                  CHANNELS 3 Zrotation Xrotation Yrotation
                  End Site
                  {
                    OFFSET 2.48547 -0.328903 0.83742
                  }
                }
              }
              JOINT lRing1
              {
                OFFSET 8.82822 0.546677 1.51678
                CHANNELS 3 Zrotation Xrotation Yrotation
                JOINT lRing2
                {
                  OFFSET 2.60934 -0.819778 -0.0198488
                  CHANNELS 3 Zrotation Xrotation Yrotation
                  End Site
                  {
                    OFFSET 2.33842 -0.294052 0.168128
                  }
                }
              }
              JOINT lPinky1
              {
                OFFSET 8.27202 -0.0477905 -0.4584
                CHANNELS 3 Zrotation Xrotation Yrotation
                JOINT lPinky2
                {
                  OFFSET 1.82734 -0.647385 -0.700984
                  CHANNELS 3 Zrotation Xrotation Yrotation
                  End Site
                  {
                    OFFSET 1.69225 -0.51767 -0.607171
                  }
                }
              }
            }
          }
        }
      }
    }
  }
  JOINT rButtock
  {
    OFFSET -8.77824 4.35084 1.2192
    CHANNELS 3 Zrotation Xrotation Yrotation
    JOINT rThigh
    {
      OFFSET 0 -1.70687 -2.19456
      CHANNELS 3 Zrotation Xrotation Yrotation
      JOINT rShin
      {
        OFFSET 0 -36.8199 0.73152
        CHANNELS 3 Zrotation Xrotation Yrotation
        JOINT rFoot
        {
          OFFSET 0.73152 -45.1104 -5.12064
          CHANNELS 3 Zrotation Xrotation Yrotation
          End Site
          {
            OFFSET -1.1221 -3.69964 12.103
          }
        }
      }
    }
  }
  JOINT lButtock
  {
    OFFSET 8.77824 4.35084 1.2192
    CHANNELS 3 Zrotation Xrotation Yrotation
    JOINT lThigh
    {
      OFFSET 0 -1.70687 -2.19456
      CHANNELS 3 Zrotation Xrotation Yrotation
      JOINT lShin
      {
        OFFSET 0 -36.8199 0.73152
        CHANNELS 3 Zrotation Xrotation Yrotation
        JOINT lFoot
        {
          OFFSET -0.73152 -45.1104 -5.12064
          CHANNELS 3 Zrotation Xrotation Yrotation
          End Site
          {
            OFFSET 1.1221 -3.69964 12.103
          }
        }
      }
    }
  }
}
MOTION
Frames:	4
Frame Time:	0.03333
-0.010831941850483418 36.02598190307617 0.14651326835155487 -7.455244213342667 -11.76260232925415 9.584202691912651 5.726978927850723 8.2911117374897 7.619893625378609 2.895599529147148 -5.73267325758934 6.37062594294548 -6.518116593360901 8.887137472629547 -1.7545844614505768 1.821431815624237 -20.20483911037445 0.8753704279661179 -2.5205911695957184 -3.2790179550647736 3.6461060866713524 4.689044505357742 4.677151590585709 1.5870258584618568 3.132842257618904 -3.409903720021248 -2.6517733186483383 30.652504563331604 24.07743126153946 17.466958165168762 -16.33613482117653 -26.855161786079407 53.62967491149902 -4.868081957101822 -1.1922633647918701 -0.8881358150392771 -1.1930153891444206 0.41557610034942627 -1.9012369215488434 3.0406027659773827 0.7350781559944153 0.3497094288468361 -3.1556792557239532 0.934780016541481 0.8988918084651232 5.005827806890011 5.166334882378578 -3.2626263052225113 2.398824244737625 0.509081007912755 0.823732540011406 -1.7210977524518967 -0.9675867855548859 -4.185808785259724 0.25088511407375336 5.119657069444656 -2.347649037837982 6.937489360570908 -1.7241130582988262 -0.2118925005197525 -3.924422487616539 -1.212504655122757 2.4938106536865234 5.363798439502716 -1.9886548072099686 2.3092196881771088 -0.5421824846416712 2.0258449763059616 0.36413745023310184 -40.51113545894623 27.721064686775208 -31.54064565896988 21.113520562648773 -27.564150094985962 -56.689093708992004 3.353366106748581 -4.934396222233772 1.4177875220775604 1.7985150218009949 -0.12042977032251656 -2.810806855559349 0.7361845672130585 -2.367139980196953 -2.4373970925807953 3.768635094165802 3.8984955847263336 0.11901296675205231 -4.143585786223412 7.148368656635284 -0.8880582824349403 -0.7812133245170116 2.6856864988803864 -1.7414148151874542 -3.361380212008953 6.523936986923218 -1.1552247405052185 -1.6462041065096855 -4.325214922428131 4.231172651052475 -13.964191675186157 -4.693087935447693 4.521904326975346 -2.906639836728573 -2.3768234252929688 -3.298053592443466 -0.3919019177556038 4.994100853800774 -1.6133178770542145 -2.5296057388186455 -2.358314171433449 0.211087167263031 -23.309104442596436 -26.73896849155426 -32.894587218761444 -8.744669258594513 43.68513286113739 4.562564939260483 -3.616369441151619 -9.022794887423515 -5.245981737971306 -0.5802769772708416 1.981804445385933 7.36045628786087 33.345120549201965 -39.90187168121338 22.52473533153534 16.126965433359146 56.39262914657593 -16.752386838197708 -2.215030062943697 -4.424201175570488 8.340735957026482
-0.037260944955050945 63.937591552734375 0.3857133239507675 -8.376667499542236 -13.745768666267395 32.14420706033707 6.265955418348312 13.817041665315628 5.096043571829796 -2.270619347691536 -7.114265710115433 5.113828629255295 -7.1219488978385925 3.0226483941078186 -0.5657704174518585 6.394810080528259 -16.76561951637268 0.7761555165052414 -6.07702262699604 -6.537015438079834 6.8611979484558105 3.6800511181354523 -1.3523456454277039 3.3720413222908974 -3.707911893725395 1.4107205718755722 -10.46752117574215 31.907923221588135 20.896681398153305 25.82688868045807 -21.079304963350296 -37.26153463125229 64.61927533149719 -9.614001363515854 -7.195719704031944 -3.5493484139442444 -1.6706417128443718 -5.835206061601639 -3.3776749670505524 9.335405677556992 9.425311982631683 -4.208863042294979 -3.7958796322345734 1.3481111079454422 -3.7207841500639915 2.91295375674963 -3.7763135880231857 -2.967596724629402 14.051504284143448 -2.0146672055125237 -1.5437044948339462 2.8370938450098038 -5.6833286583423615 1.6741232201457024 -2.9023224860429764 -0.7282076776027679 -10.915212035179138 6.5578776597976685 7.807443737983704 -9.781483188271523 -14.551738947629929 3.211391419172287 9.881247282028198 9.14716824889183 -3.1761545687913895 3.937084525823593 -5.655325725674629 -3.517519310116768 -3.365265056490898 -38.531029522418976 27.44055926799774 -43.64677459001541 28.300609588623047 -26.235437393188477 -59.656662940979004 10.941635817289352 -17.651183009147644 9.940589815378189 2.5365570187568665 -6.55215248465538 -4.185905680060387 3.837241977453232 6.048544272780418 0.549478679895401 0.8362779021263123 1.041116863489151 3.4900856763124466 -8.981808051466942 0.947372317314148 4.227735064923763 0.6734666414558887 4.061623513698578 -2.5211437046527863 -3.1632668897509575 7.4257493019104 1.5618100762367249 -9.723035171627998 5.264371633529663 5.90047761797905 -7.293763160705566 -4.268869757652283 0.4353456571698189 5.627992004156113 -7.635924518108368 -5.452107489109039 -7.35591396689415 5.29531292617321 -1.3023613393306732 -11.913443058729172 -6.447062864899635 0.6698441505432129 -27.873151302337646 -29.92179572582245 -24.600462019443512 -10.047321617603302 57.4654483795166 8.464320749044418 -9.293173626065254 -8.008155450224876 -13.193957805633545 -2.6865030638873577 -3.498452827334404 12.610215246677399 42.38706171512604 -42.19955116510391 23.41877192258835 24.29055154323578 51.56311869621277 -25.041851699352264 3.8574403524398804 -5.307602807879448 0.6708305329084396
-0.10506783705204725 56.123878479003906 0.36207128688693047 -3.655845522880554 -6.996944546699524 -10.354027524590492 8.536568731069565 6.487916260957718 9.212880358099937 0.9740167111158371 -8.625148683786392 9.287437051534653 -6.457917094230652 6.090725362300873 2.9916219413280487 4.638832211494446 -23.89849841594696 12.61653184890747 -0.3263195604085922 -4.503040015697479 6.7246949672698975 5.156660825014114 5.827093720436096 1.8124762549996376 1.3588184863328934 -1.8457239121198654 -6.43951915204525 41.96594953536987 26.937508285045624 19.973860681056976 -18.423144221305847 -36.74438863992691 69.64156150817871 -5.934198349714279 -7.504710182547569 -3.0545881390571594 -4.0711865946650505 -3.1226062774658203 -2.7877043187618256 4.384999684989452 6.260026395320892 -0.627995990216732 -2.5384600460529327 4.500307515263557 -0.24783837608993053 6.97108268737793 1.231386736035347 -4.953563287854195 5.265113264322281 -2.2700349614024162 -0.37319116294384 -0.36714278161525726 -5.667924731969833 -1.1753671243786812 -0.13864941895008087 3.8559557497501373 -6.257346868515015 8.806724846363068 5.68318784236908 -2.267816439270973 -5.8198510855436325 -1.3387562334537506 8.865376710891724 6.49653285741806 -3.0247706919908524 3.159707933664322 -2.55529023706913 1.7548774927854538 0.4672683868557215 -44.13052707910538 26.62836492061615 -42.491611540317535 25.87705135345459 -29.965140223503113 -66.35461091995239 7.72194430232048 -8.187277391552925 4.504006952047348 2.323278486728668 -2.874414771795273 -3.3545174449682236 3.0587469041347504 -0.27112638344988227 -1.5799807012081146 6.593017280101776 4.5952315628528595 -0.3469189256429672 -4.842938259243965 1.9801729917526245 0.91843631118536 0.768041331321001 5.659442245960236 -4.197867661714554 -4.685951583087444 7.0470428466796875 -2.2558343410491943 -3.5374055430293083 0.49169182777404785 5.033882707357407 -14.08498764038086 -8.645714521408081 4.724884517490864 0.9644449129700661 -5.4830601811409 -1.7499279789626598 -3.2761241868138313 5.593821331858635 -1.9931106269359589 -8.417998999357224 -5.7394639402627945 -0.14218121767044067 -39.58292484283447 -28.32559436559677 -37.49595433473587 -23.243875801563263 64.13339853286743 17.3307703435421 -7.889734581112862 -13.1773442029953 -11.184961125254631 -1.556928288191557 0.8640635758638382 10.069219172000885 62.681105732917786 -50.29861807823181 53.11009883880615 37.55923569202423 70.60238242149353 -40.0924426317215 -3.371526002883911 -5.516992136836052 6.52602843940258
-0.17421654891222715 56.29356384277344 0.3322066441178322 -3.6993589997291565 -6.895460486412048 -11.023463979363441 8.571984618902206 6.4420826733112335 9.388951286673546 1.0240452736616135 -8.615326434373856 9.269675463438034 -6.669645309448242 6.019405424594879 3.2541780173778534 4.8686546087265015 -24.17866051197052 12.819017171859741 -0.10861001908779144 -4.6507009863853455 6.969875693321228 5.193149596452713 5.756269991397858 1.8367019668221474 1.3004321604967117 -1.7451276630163193 -6.41780398786068 42.38408982753754 26.792202293872833 19.93155688047409 -18.584446907043457 -37.08379536867142 69.98756647109985 -6.117650717496872 -7.5993626564741135 -3.1204739212989807 -4.116333536803722 -3.135109394788742 -2.9510213434696198 4.5055220648646355 6.2774017453193665 -0.5825003609061241 -2.739883214235306 4.5131660252809525 -0.10409343056380749 6.886222958564758 1.165366843342781 -4.82308454811573 5.1584793627262115 -2.2953442856669426 -0.3264295309782028 -0.3635593503713608 -5.906947106122971 -1.2809764221310616 -0.08859939873218536 3.8218621909618378 -6.712710857391357 8.777317106723785 5.852027535438538 -2.336438074707985 -5.724509283900261 -1.5037603676319122 9.088504314422607 6.537594795227051 -2.9295415431261063 3.187541216611862 -2.691565230488777 1.6511296480894089 0.28109089471399784 -44.22934502363205 26.538575291633606 -42.62538939714432 26.219955682754517 -30.243789553642273 -66.66575253009796 7.805183976888657 -8.177042081952095 4.302256554365158 2.458467185497284 -3.063950389623642 -3.53176049888134 2.9113326966762543 -0.31723892083391547 -1.5966425836086273 6.6168031096458435 4.45664182305336 -0.3733815997838974 -4.681811258196831 1.966204047203064 0.595637820661068 0.899979192763567 5.752667784690857 -4.312247782945633 -4.918735139071941 7.136135101318359 -2.3402461409568787 -3.8289938494563103 0.5702859163284302 4.795901030302048 -14.28995132446289 -8.58407199382782 4.710357673466206 1.0724158957600594 -5.685459673404694 -1.8144780211150646 -3.463621325790882 5.572261735796928 -1.9926707446575165 -8.507037609815598 -5.814404860138893 -0.10201513767242432 -40.00023365020752 -28.585403859615326 -37.77138501405716 -23.613312542438507 64.76769804954529 17.858173102140427 -7.702049687504768 -13.257507383823395 -11.339510679244995 -1.507361065596342 0.8128602057695389 10.28759390115738 63.81934404373169 -50.58152675628662 54.00250196456909 38.33373695611954 70.8939653635025 -40.76030194759369 -3.303912878036499 -5.511890575289726 6.459134146571159
